<svg version="1" xmlns="http://www.w3.org/2000/svg" width="933.333" height="933.333" viewBox="0 0 700.000000 700.000000"><path d="M327.8.5c-.1.1-4.2.5-8.9.9s-9.5.8-10.5 1c-1 .2-4.5.7-7.8 1.1-6.7.8-8.5 1.1-18.6 3.1-31.2 6.3-57.5 15.2-85.5 29-26.2 12.8-40.5 21.8-63.7 40.1C79 118.3 39.6 174.5 17.6 240.2c-3.1 9.4-7.9 26.7-9.1 32.9-.3 1.3-1.1 5.8-2 9.9-2.9 14.7-3.6 20-5.2 37-1.5 16.4-.8 58.9 1.2 71.1.2 1.3.6 4.6 1 7.4.9 7.6 1.6 11.6 2.5 16 .5 2.2 1.1 5.3 1.4 7 4.2 23.1 15.3 55.3 28 81.6l4.6 9.5 183.7-.1 183.8-.2 8-2.2c18.1-4.9 31.8-13.9 44.7-29.2 15.8-19 28.3-49 32.3-78.2.3-2 .7-5.4 1-7.4.8-5.1.7-19.7-.1-26.3-3-26.1-20.3-46.3-45.4-52.8-7-1.8-11.6-2-74.4-2.1-36.8-.1-67.3-.4-67.8-.7-.9-.6-.4-22 .6-24.5.6-1.4 15.5-1.5 147.8-1.5l147.2.1 1.3 4.4c.7 2.4 1.5 6 1.8 8 .3 2 .8 4.8 1 6.1.3 1.4.7 4.3 1 6.5.3 2.2.8 5.8 1.1 8 1.2 9.4 1.3 12.9 1.4 29 0 19-.3 22.1-2.6 39-5.8 41.7-23.6 83.5-51.2 119.9-8.6 11.3-30.8 34.1-42.3 43.4-37.6 30.2-82.9 49.5-131.4 55.7-12.4 1.6-37.8 2.1-52.5 1-30.6-2.2-63.8-11.4-94-26-18.8-9.2-45.3-27.4-59.9-41.3l-4.5-4.2h-57.8c-31.8 0-57.8.2-57.8.6 0 .3 1.9 3.3 4.2 6.7 18.8 28.1 41.8 53.6 67.3 74.8 9.2 7.6 20.5 16.1 28.5 21.4 2.5 1.7 4.7 3.2 5 3.5.3.3 1.7 1.2 3.2 2 1.5.8 6.3 3.7 10.8 6.3 24.9 14.8 63.5 30.8 87.5 36.3.6.1 4.8 1.1 9.5 2.2 11.7 2.9 22.6 4.9 30.5 5.7 2.2.3 5.1.7 6.3.9 13.1 2.7 69.9 2.8 84 .1 1.6-.3 10.4-1.5 14.7-2 10.7-1.4 34.9-7.3 51.5-12.6 20.6-6.7 45.9-17.7 63.9-28.1 4.6-2.6 8.6-4.8 8.8-4.8.2 0 .9-.5 1.6-1 .7-.6 6.2-4.4 12.4-8.4 25.1-16.7 49.5-38 67.5-59 3.4-3.9 6.4-7.3 6.8-7.6 1.7-1.3 18.1-23.6 24.5-33.5 21.9-33.6 40.6-77.9 48.1-114 6.1-29.5 7.9-46.4 7.9-76s-1.2-42.9-6.1-68c-5.7-29.2-15.6-58.6-28.6-85.3l-6-12.2-185.2.2-185.1.3-7.6 2.7c-14.7 5.1-24.7 11.5-35.9 22.8-16 16.1-27.8 38.8-35 67-3.4 13.3-4.4 21.5-4.3 36.5 0 19.4 2.5 32.1 9.1 45.5 4.4 9.1 14.2 19.2 22.2 23.2 12.6 6.2 11.4 6.1 82.3 6.3 57 .2 64.5.1 63-1.2-1.2-1-.9-1 1 .1 1.5.9 2.7 1.4 2.7 1.1 0-.8 6.1 2.5 7.7 4.1 2.4 2.4 3.2 6.1 2.2 10-1.3 4.3-5.7 11.4-7.3 11.5-.6.1-66 .2-145.3.2l-144.2.2-2.1-9c-1.1-5-2.2-10.4-2.5-12-.3-1.7-.7-4.1-.9-5.5-.5-3-1.7-12.9-2.2-18.5-.6-7.6-.6-33 .1-41 3.7-44.6 17.8-85.3 42.3-122.5 4.1-6.3 7.8-11.7 8.1-12 .4-.3 1.9-2.3 3.6-4.5 1.6-2.2 3.1-4.2 3.4-4.5.4-.3 3.3-3.7 6.7-7.5 43.4-49.8 106.2-81.4 172.9-87 7.5-.6 37-.7 42-.1 1.7.2 5.7.6 9 1 3.3.3 7.1.8 8.5 1.1 1.4.2 4.3.7 6.5 1 2.2.3 5.6 1 7.5 1.5 1.9.5 5.1 1.2 7 1.5 4.4.7 5.3 1 17 4.6 36 11.3 70 30.5 97.3 55l3.8 3.4 58.2-.1c32-.1 58.3-.2 58.5-.3.6-.3-17.4-25.3-22.5-31.1-.7-.8-3.2-3.8-5.6-6.5-49.2-58-120.1-100.1-194.2-115.1-6.5-1.4-13.3-2.6-15-2.9-1.6-.2-4.3-.6-6-.9-1.6-.2-5.7-.7-9-1.1-3.3-.3-7.3-.8-9-1.1-3.3-.5-54.1-1.4-54.7-.9zM378 386c1.8 1.2.2 1.2-2.5 0-1.3-.6-1.5-.9-.5-.9.8 0 2.2.4 3 .9z"/></svg>